<svg width="47" height="30" viewBox="0 0 47 30" fill="none" xmlns="http://www.w3.org/2000/svg">
<g clip-path="url(#clip0_104_495)">
<path d="M46.3882 17.953C44.7836 16.782 43.0303 15.824 41.1734 15.1035V9.77373C42.5678 10.3854 43.8904 11.1458 45.1176 12.0414C45.2381 12.1293 45.3752 12.1926 45.5207 12.2278C45.6662 12.263 45.8174 12.2694 45.9654 12.2465C46.1135 12.2236 46.2554 12.1719 46.3831 12.0945C46.5108 12.017 46.6216 11.9153 46.7092 11.7952L46.7829 11.6964C46.8718 11.5773 46.936 11.442 46.9716 11.2982C47.0073 11.1545 47.0137 11.0052 46.9905 10.859C46.9673 10.7128 46.915 10.5725 46.8366 10.4464C46.7582 10.3203 46.6552 10.2109 46.5336 10.1243C44.8868 8.92334 43.0839 7.94671 41.1734 7.22074V1.20097C41.1734 0.882453 41.0453 0.576981 40.8172 0.351756C40.5892 0.12653 40.2799 0 39.9574 0H12.0138C11.6915 0.000493209 11.3825 0.127182 11.1546 0.3523C10.9267 0.577419 10.7984 0.882605 10.7979 1.20097V13.6955C10.5147 13.6676 10.2315 13.6321 9.96339 13.5892C7.21057 13.1659 4.48796 11.9948 1.88052 10.1131C1.75978 10.0258 1.6227 9.96286 1.47721 9.92811C1.33172 9.89336 1.1807 9.88743 1.03288 9.91067C0.885056 9.9339 0.74336 9.98584 0.61598 10.0635C0.4886 10.1411 0.378062 10.2429 0.290753 10.363L0.219006 10.4619C0.12876 10.5811 0.0635008 10.7169 0.027049 10.8613C-0.00940272 11.0057 -0.0163143 11.1559 0.0067192 11.303C0.0297527 11.45 0.0822682 11.5911 0.161191 11.7179C0.240113 11.8447 0.343856 11.9547 0.466344 12.0414C3.75349 14.4098 7.22756 15.7711 10.8017 16.077V28.8028C10.8022 29.121 10.9305 29.4259 11.1585 29.6508C11.3865 29.8756 11.6955 30.0019 12.0176 30.0019H39.9612C40.1208 30.0021 40.2789 29.9713 40.4264 29.9111C40.5739 29.851 40.708 29.7627 40.8209 29.6513C40.9338 29.5399 41.0234 29.4077 41.0846 29.2621C41.1457 29.1165 41.1771 28.9604 41.1771 28.8028V17.6677C42.5169 18.2708 43.7894 19.0102 44.9741 19.8738C45.0945 19.9615 45.2313 20.0247 45.3765 20.0599C45.5218 20.0951 45.6727 20.1015 45.8205 20.0788C45.9683 20.0561 46.1101 20.0047 46.2377 19.9276C46.3652 19.8505 46.4761 19.7492 46.5638 19.6295L46.6375 19.5288C46.7261 19.4098 46.7901 19.2746 46.8255 19.131C46.861 18.9875 46.8674 18.8384 46.8442 18.6924C46.821 18.5464 46.7688 18.4064 46.6905 18.2805C46.6123 18.1545 46.5095 18.0451 46.3882 17.9586V17.953ZM13.2335 23.9541C19.6662 23.5812 24.0957 19.8514 24.1391 19.8085C25.9662 18.4066 28.0552 17.3742 30.2867 16.7707C32.4378 16.1854 34.6903 16.0583 36.895 16.3977C37.5204 16.4954 38.1395 16.6293 38.7491 16.7987V27.6055H13.2335V23.9541ZM29.6599 14.4844C27.0821 15.177 24.6721 16.3758 22.5739 18.009C22.5361 18.0407 18.6769 21.2128 13.2335 21.5764V16.1236C14.5742 16.0613 15.9038 15.8537 17.1985 15.5044C19.7734 14.8107 22.1801 13.6113 24.275 11.978C26.1031 10.5764 28.1926 9.54415 30.4245 8.94014C32.5755 8.35388 34.8282 8.22674 37.0328 8.56717C37.6057 8.65617 38.173 8.77695 38.7321 8.92895V14.3576C35.7434 13.6347 32.6172 13.6784 29.6504 14.4844H29.6599ZM29.8052 6.65196C27.2214 7.33044 24.808 8.53054 22.7174 10.1765C20.8931 11.5804 18.8057 12.614 16.5755 13.2181C15.4838 13.5134 14.3636 13.6941 13.2335 13.7571V2.40194H38.7434V6.48598C35.7928 5.79742 32.714 5.85515 29.792 6.65382L29.8052 6.65196Z" fill="white"/>
</g>
<defs>
<clipPath id="clip0_104_495">
<rect width="47" height="30" fill="white"/>
</clipPath>
</defs>
</svg>
