<svg xmlns="http://www.w3.org/2000/svg" xmlns:xlink="http://www.w3.org/1999/xlink" viewBox="0 0 248.93 160.87"><defs><style>.cls-1{fill:none;}.cls-2{clip-path:url(#clip-path);}.cls-3{fill:#1d1d1b;}</style><clipPath id="clip-path" transform="translate(-7.21 -61.43)"><rect class="cls-1" width="283.43" height="283.43"/></clipPath></defs><g id="Capa_2" data-name="Capa 2"><g id="Capa_1-2" data-name="Capa 1"><g class="cls-2"><path class="cls-3" d="M252.9,157.7a120.83,120.83,0,0,0-27.62-15.28V113.84A110.91,110.91,0,0,1,246.17,126a6,6,0,0,0,8.43-1.32l.39-.53a6,6,0,0,0-1.32-8.43,120.84,120.84,0,0,0-28.39-15.57V67.87a6.44,6.44,0,0,0-6.44-6.44h-148a6.45,6.45,0,0,0-6.44,6.44v67c-1.5-.15-3-.34-4.42-.57-14.58-2.27-29-8.55-42.81-18.64A6,6,0,0,0,8.75,117l-.38.53A6,6,0,0,0,9.68,126c17.41,12.7,35.81,20,54.74,21.64v68.24a6.44,6.44,0,0,0,6.44,6.43h148a6.43,6.43,0,0,0,6.44-6.43V156.17A112.26,112.26,0,0,1,245.41,168a6,6,0,0,0,8.42-1.31l.39-.54a6,6,0,0,0-1.32-8.42ZM77.3,189.88c34.07-2,57.53-22,57.76-22.23a93.19,93.19,0,0,1,32.56-16.29,83.42,83.42,0,0,1,35-2,85.74,85.74,0,0,1,9.82,2.15v57.95H77.3Zm87-50.78A105.29,105.29,0,0,0,126.77,158c-.2.17-20.64,17.18-49.47,19.13V147.89a97,97,0,0,0,21-3.32,105.16,105.16,0,0,0,37.48-18.91,93.34,93.34,0,0,1,32.57-16.29,83.24,83.24,0,0,1,35-2,81.83,81.83,0,0,1,9,1.94v29.11A95.62,95.62,0,0,0,164.25,139.1Zm.77-42A102.46,102.46,0,0,0,127.53,116,92.91,92.91,0,0,1,95,132.31,85.18,85.18,0,0,1,77.3,135.2V74.31H212.41v21.9A95.46,95.46,0,0,0,165,97.11Z" transform="translate(-7.21 -61.43)"/></g></g></g></svg>